<svg width="22" height="22" viewBox="0 0 22 22" fill="none" xmlns="http://www.w3.org/2000/svg">
<path d="M11 15.5827C11.2597 15.5827 11.4774 15.4948 11.6531 15.3191C11.8288 15.1434 11.9167 14.9257 11.9167 14.666C11.9167 14.4063 11.8288 14.1886 11.6531 14.0129C11.4774 13.8372 11.2597 13.7493 11 13.7493C10.7403 13.7493 10.5226 13.8372 10.3469 14.0129C10.1712 14.1886 10.0833 14.4063 10.0833 14.666C10.0833 14.9257 10.1712 15.1434 10.3469 15.3191C10.5226 15.4948 10.7403 15.5827 11 15.5827ZM10.0833 11.916H11.9167V6.41602H10.0833V11.916ZM4.58333 19.2493C4.07917 19.2493 3.64757 19.0698 3.28854 18.7108C2.92951 18.3518 2.75 17.9202 2.75 17.416V4.58268C2.75 4.07852 2.92951 3.64692 3.28854 3.28789C3.64757 2.92886 4.07917 2.74935 4.58333 2.74935H8.43333C8.63194 2.19935 8.96424 1.75629 9.43021 1.42018C9.89618 1.08407 10.4194 0.916016 11 0.916016C11.5806 0.916016 12.1038 1.08407 12.5698 1.42018C13.0358 1.75629 13.3681 2.19935 13.5667 2.74935H17.4167C17.9208 2.74935 18.3524 2.92886 18.7115 3.28789C19.0705 3.64692 19.25 4.07852 19.25 4.58268V17.416C19.25 17.9202 19.0705 18.3518 18.7115 18.7108C18.3524 19.0698 17.9208 19.2493 17.4167 19.2493H4.58333ZM4.58333 17.416H17.4167V4.58268H4.58333V17.416ZM11 3.89518C11.1986 3.89518 11.3628 3.83025 11.4927 3.70039C11.6226 3.57053 11.6875 3.40629 11.6875 3.20768C11.6875 3.00907 11.6226 2.84484 11.4927 2.71497C11.3628 2.58511 11.1986 2.52018 11 2.52018C10.8014 2.52018 10.6372 2.58511 10.5073 2.71497C10.3774 2.84484 10.3125 3.00907 10.3125 3.20768C10.3125 3.40629 10.3774 3.57053 10.5073 3.70039C10.6372 3.83025 10.8014 3.89518 11 3.89518Z" fill="#FF8D28"/>
</svg>
